<svg id="visual" viewBox="0 0 960 540" width="960" height="540" xmlns="http://www.w3.org/2000/svg" xmlns:xlink="http://www.w3.org/1999/xlink" version="1.1"><path d="M0 168L20 164.5C40 161 80 154 120 143.3C160 132.7 200 118.3 240 122.8C280 127.3 320 150.7 360 147.8C400 145 440 116 480 105.2C520 94.3 560 101.7 600 121.5C640 141.3 680 173.7 720 187.2C760 200.7 800 195.3 840 190C880 184.7 920 179.3 940 176.7L960 174L960 0L940 0C920 0 880 0 840 0C800 0 760 0 720 0C680 0 640 0 600 0C560 0 520 0 480 0C440 0 400 0 360 0C320 0 280 0 240 0C200 0 160 0 120 0C80 0 40 0 20 0L0 0Z" fill="#004cbb"/><path d="M0 249L20 241C40 233 80 217 120 199C160 181 200 161 240 170C280 179 320 217 360 219.8C400 222.7 440 190.3 480 179.5C520 168.7 560 179.3 600 197.3C640 215.3 680 240.7 720 248.8C760 257 800 248 840 244.3C880 240.7 920 242.3 940 243.2L960 244L960 172L940 174.7C920 177.3 880 182.7 840 188C800 193.3 760 198.7 720 185.2C680 171.7 640 139.3 600 119.5C560 99.7 520 92.3 480 103.2C440 114 400 143 360 145.8C320 148.7 280 125.3 240 120.8C200 116.3 160 130.7 120 141.3C80 152 40 159 20 162.5L0 166Z" fill="#0066ff"/><path d="M0 384L20 361.5C40 339 80 294 120 266.2C160 238.3 200 227.7 240 244C280 260.3 320 303.7 360 301.8C400 300 440 253 480 247.5C520 242 560 278 600 306C640 334 680 354 720 350.5C760 347 800 320 840 304.7C880 289.3 920 285.7 940 283.8L960 282L960 242L940 241.2C920 240.3 880 238.7 840 242.3C800 246 760 255 720 246.8C680 238.7 640 213.3 600 195.3C560 177.3 520 166.7 480 177.5C440 188.3 400 220.7 360 217.8C320 215 280 177 240 168C200 159 160 179 120 197C80 215 40 231 20 239L0 247Z" fill="#6198ff"/><path d="M0 428L20 416.2C40 404.3 80 380.7 120 360.8C160 341 200 325 240 335.8C280 346.7 320 384.3 360 383.3C400 382.3 440 342.7 480 331C520 319.3 560 335.7 600 352.8C640 370 680 388 720 390.7C760 393.3 800 380.7 840 369C880 357.3 920 346.7 940 341.3L960 336L960 280L940 281.8C920 283.7 880 287.3 840 302.7C800 318 760 345 720 348.5C680 352 640 332 600 304C560 276 520 240 480 245.5C440 251 400 298 360 299.8C320 301.7 280 258.3 240 242C200 225.7 160 236.3 120 264.2C80 292 40 337 20 359.5L0 382Z" fill="#6198ff"/><path d="M0 460L20 447.3C40 434.7 80 409.3 120 394C160 378.7 200 373.3 240 387.8C280 402.3 320 436.7 360 433.2C400 429.7 440 388.3 480 380.2C520 372 560 397 600 416.7C640 436.3 680 450.7 720 452.5C760 454.3 800 443.7 840 434.7C880 425.7 920 418.3 940 414.7L960 411L960 334L940 339.3C920 344.7 880 355.3 840 367C800 378.7 760 391.3 720 388.7C680 386 640 368 600 350.8C560 333.7 520 317.3 480 329C440 340.7 400 380.3 360 381.3C320 382.3 280 344.7 240 333.8C200 323 160 339 120 358.8C80 378.7 40 402.3 20 414.2L0 426Z" fill="#0066ff"/><path d="M0 541L20 541C40 541 80 541 120 541C160 541 200 541 240 541C280 541 320 541 360 541C400 541 440 541 480 541C520 541 560 541 600 541C640 541 680 541 720 541C760 541 800 541 840 541C880 541 920 541 940 541L960 541L960 409L940 412.7C920 416.3 880 423.7 840 432.7C800 441.7 760 452.3 720 450.5C680 448.7 640 434.3 600 414.7C560 395 520 370 480 378.2C440 386.3 400 427.7 360 431.2C320 434.7 280 400.3 240 385.8C200 371.3 160 376.7 120 392C80 407.3 40 432.7 20 445.3L0 458Z" fill="#004cbb"/></svg>